<mxfile host="app.diagrams.net" modified="2021-10-28T11:43:33.073Z" agent="5.0 (X11)" etag="0R9UWOc2MB33K9N1Oeyv" version="15.5.5" type="github">
  <diagram id="C5RBs43oDa-KdzZeNtuy" name="Page-1">
    <mxGraphModel dx="1422" dy="820" grid="1" gridSize="10" guides="1" tooltips="1" connect="1" arrows="1" fold="1" page="1" pageScale="1" pageWidth="827" pageHeight="1169" math="0" shadow="0">
      <root>
        <mxCell id="WIyWlLk6GJQsqaUBKTNV-0" />
        <mxCell id="WIyWlLk6GJQsqaUBKTNV-1" parent="WIyWlLk6GJQsqaUBKTNV-0" />
        <mxCell id="vlvokH5vZDru8xaRphV1-2" value="" style="edgeStyle=orthogonalEdgeStyle;rounded=0;orthogonalLoop=1;jettySize=auto;html=1;" edge="1" parent="WIyWlLk6GJQsqaUBKTNV-1" source="vlvokH5vZDru8xaRphV1-0">
          <mxGeometry relative="1" as="geometry">
            <mxPoint x="370" y="70" as="targetPoint" />
          </mxGeometry>
        </mxCell>
        <mxCell id="vlvokH5vZDru8xaRphV1-0" value="CustomFunct" style="ellipse;whiteSpace=wrap;html=1;" vertex="1" parent="WIyWlLk6GJQsqaUBKTNV-1">
          <mxGeometry x="310" width="120" height="50" as="geometry" />
        </mxCell>
        <mxCell id="vlvokH5vZDru8xaRphV1-5" value="" style="edgeStyle=orthogonalEdgeStyle;rounded=0;orthogonalLoop=1;jettySize=auto;html=1;" edge="1" parent="WIyWlLk6GJQsqaUBKTNV-1" source="vlvokH5vZDru8xaRphV1-3" target="vlvokH5vZDru8xaRphV1-4">
          <mxGeometry relative="1" as="geometry" />
        </mxCell>
        <mxCell id="vlvokH5vZDru8xaRphV1-3" value="param, mod" style="shape=parallelogram;perimeter=parallelogramPerimeter;whiteSpace=wrap;html=1;fixedSize=1;" vertex="1" parent="WIyWlLk6GJQsqaUBKTNV-1">
          <mxGeometry x="270" y="70" width="200" height="40" as="geometry" />
        </mxCell>
        <mxCell id="vlvokH5vZDru8xaRphV1-7" value="" style="edgeStyle=orthogonalEdgeStyle;rounded=0;orthogonalLoop=1;jettySize=auto;html=1;" edge="1" parent="WIyWlLk6GJQsqaUBKTNV-1" source="vlvokH5vZDru8xaRphV1-4" target="vlvokH5vZDru8xaRphV1-6">
          <mxGeometry relative="1" as="geometry" />
        </mxCell>
        <mxCell id="vlvokH5vZDru8xaRphV1-4" value="(param*param +1) % mod" style="rounded=0;whiteSpace=wrap;html=1;" vertex="1" parent="WIyWlLk6GJQsqaUBKTNV-1">
          <mxGeometry x="275" y="130" width="190" height="40" as="geometry" />
        </mxCell>
        <mxCell id="vlvokH5vZDru8xaRphV1-6" value="return((param*param +1) % mod)" style="ellipse;whiteSpace=wrap;html=1;" vertex="1" parent="WIyWlLk6GJQsqaUBKTNV-1">
          <mxGeometry x="280" y="190" width="190" height="40" as="geometry" />
        </mxCell>
      </root>
    </mxGraphModel>
  </diagram>
</mxfile>
